# xmcd CD database file
#
# Track frame offsets:
#	150
#	15450
#	46940
#	62700
#	90505
#	127335
#	176900
#	195722
#
# Disc length: 3321 seconds
#
# Revision: 0
# Processed by: cddbd v1.5PL3 Copyright (c) Steve Scherf et al.
# Submitted via: CDex 1.51
#
DISCID=6b0cf708
DTITLE=The catholics - Barefoot
DYEAR=1999
DGENRE=Jazz
TTITLE0=Twenty Seven
TTITLE1=High Times
TTITLE2=Me Me Me
TTITLE3=In Love
TTITLE4=Wild Life
TTITLE5=Barefoot
TTITLE6=Mossman
TTITLE7=Moving Out
EXTD=YEAR: 1999
EXTT0=
EXTT1=
EXTT2=
EXTT3=
EXTT4=
EXTT5=
EXTT6=
EXTT7=
PLAYORDER=
